<svg xmlns="http://www.w3.org/2000/svg" xmlns:xlink="http://www.w3.org/1999/xlink" viewBox="0,0,256,256" width="30px" height="30px" fill-rule="nonzero"><g fill="#45828a" fill-rule="nonzero" stroke="none" stroke-width="1" stroke-linecap="butt" stroke-linejoin="miter" stroke-miterlimit="10" stroke-dasharray="" stroke-dashoffset="0" font-family="none" font-weight="none" font-size="none" text-anchor="none" style="mix-blend-mode: normal"><g transform="scale(8.53333,8.53333)"><path d="M6,4c-1.105,0 -2,0.895 -2,2v18c0,1.105 0.895,2 2,2h18c1.105,0 2,-0.895 2,-2v-18c0,-1.105 -0.895,-2 -2,-2zM12.30859,8h2.69141c2.38,0 4.32559,1.9568 4.30859,4.3418c-0.005,0.582 0.49417,1.04297 1.07617,1.04297h0.53906c0.595,0 1.07617,0.48312 1.07617,1.07813v3.22852c0,2.37 -1.93859,4.30859 -4.30859,4.30859h-5.38476c-2.369,0 -4.30664,-1.93859 -4.30664,-4.30859v-2.69141v-2.69141c0,-2.37 1.93859,-4.30859 4.30859,-4.30859zM12.30859,11.23047c-0.592,0 -1.07812,0.48613 -1.07812,1.07813c0,0.592 0.48613,1.07617 1.07813,1.07617h2.69141c0.592,0 1.07617,-0.48417 1.07617,-1.07617c0,-0.592 -0.48417,-1.07812 -1.07617,-1.07812zM12.30664,16.61523c-0.592,0 -1.07617,0.48417 -1.07617,1.07617c0,0.592 0.48417,1.07813 1.07617,1.07813h5.38477c0.592,0 1.07813,-0.48613 1.07813,-1.07812c0,-0.592 -0.48512,-1.07617 -1.07812,-1.07617z"></path></g></g></svg>