<svg xmlns="http://www.w3.org/2000/svg" xmlns:xlink="http://www.w3.org/1999/xlink" viewBox="0,0,256,256" width="100px" height="100px" fill-rule="nonzero"><g fill="#45828a" fill-rule="nonzero" stroke="none" stroke-width="1" stroke-linecap="butt" stroke-linejoin="miter" stroke-miterlimit="10" stroke-dasharray="" stroke-dashoffset="0" font-family="none" font-weight="none" font-size="none" text-anchor="none" style="mix-blend-mode: normal"><g transform="scale(2.56,2.56)"><path d="M38.85938,19.00195c0,0 -9.99717,-0.20182 -20.35742,7.70313c-0.11193,0.08579 -0.20445,0.19429 -0.27148,0.31836c0,0 -10.23242,18.82708 -10.23242,42.11914c0.00046,0.18807 0.05394,0.3722 0.1543,0.53125c0,0 6.86408,10.81214 22.81445,11.32617c0.36318,0.01172 0.70414,-0.17446 0.89063,-0.48633l3,-5c0.15585,-0.26031 0.1851,-0.57729 0.07953,-0.86173c-0.10557,-0.28444 -0.33456,-0.50557 -0.6225,-0.60116c-4.59347,-1.53116 -7.44072,-4.05926 -9.17969,-6.13672c4.56318,2.42537 13.14902,6.08594 24.86523,6.08594c11.71503,0 20.29997,-3.66054 24.86328,-6.08594c-1.73907,2.0773 -4.5869,4.60579 -9.17969,6.13672c-0.2876,0.09602 -0.51611,0.31734 -0.62128,0.60172c-0.10517,0.28438 -0.07565,0.60112 0.08026,0.86117l3,5c0.18614,0.31124 0.52618,0.49733 0.88867,0.48633c15.95037,-0.51403 22.81641,-11.32617 22.81641,-11.32617c0.09967,-0.15926 0.15247,-0.34337 0.15234,-0.53125c0,-23.29304 -10.23047,-42.11914 -10.23047,-42.11914c-0.0676,-0.12426 -0.1608,-0.23277 -0.27344,-0.31836c-10.36025,-7.90494 -20.35547,-7.70312 -20.35547,-7.70312c-0.23177,0.00454 -0.45477,0.08946 -0.63086,0.24023l-1.16211,1c-0.2755,0.23718 -0.4006,0.60518 -0.32673,0.96114c0.07387,0.35595 0.33507,0.64378 0.6822,0.75175c4.4398,1.3816 7.61118,3.08453 10.19141,4.70703c-5.75952,-2.20154 -12.26174,-3.66211 -19.89453,-3.66211c-7.63279,0 -14.13501,1.46057 -19.89453,3.66211c2.58023,-1.6225 5.7516,-3.32543 10.19141,-4.70703c0.34713,-0.10797 0.60833,-0.3958 0.6822,-0.75175c0.07387,-0.35595 -0.05123,-0.72395 -0.32673,-0.96114l-1.16406,-1c-0.17557,-0.15035 -0.39781,-0.23524 -0.62891,-0.24023zM37.10742,21.10156c-4.60445,1.73711 -8.30852,3.73763 -10.67773,5.48633c-2.8383,2.09493 -4.20898,3.78516 -4.20898,3.78516c-0.29894,0.3729 -0.29225,0.9052 0.01595,1.27048c0.3082,0.36528 0.83178,0.46144 1.24967,0.22952c7.1841,-4.00582 15.69119,-6.87305 26.51367,-6.87305c10.82249,0 19.32957,2.86723 26.51367,6.87305c0.41789,0.23192 0.94147,0.13576 1.24967,-0.22952c0.3082,-0.36528 0.31489,-0.89757 0.01595,-1.27048c0,0 -1.37068,-1.69023 -4.20898,-3.78516c-2.36892,-1.74848 -6.07222,-3.74936 -10.67578,-5.48633c3.07826,0.30129 9.94874,1.59778 17.21289,7.07617c0.2963,0.55277 9.78569,18.44203 9.87695,40.6543c-0.41452,0.64377 -6.33924,9.40764 -20.45703,10.10547l-2.07617,-3.46289c8.45713,-3.3286 11.46875,-10.08008 11.46875,-10.08008c0.17785,-0.41389 0.05703,-0.8956 -0.29509,-1.17657c-0.35212,-0.28097 -0.84863,-0.29184 -1.21272,-0.02656c0,0 -10.72583,7.80859 -27.41211,7.80859c-16.68628,0 -27.41211,-7.80859 -27.41211,-7.80859c-0.36409,-0.26529 -0.8606,-0.25441 -1.21272,0.02656c-0.35212,0.28097 -0.47294,0.76268 -0.29509,1.17657c0,0 3.01097,6.75124 11.4668,10.08008l-2.07617,3.46289c-14.11648,-0.69851 -20.04253,-9.46173 -20.45703,-10.10547c0.09128,-22.21407 9.58489,-40.10775 9.87891,-40.65625c7.26551,-5.47862 14.13826,-6.77346 17.21484,-7.07422zM50,28c-8.89381,0 -17.00357,2.08131 -24.74023,6.33203c-0.15999,0.08406 -0.26217,0.24791 -0.26726,0.42857c-0.00509,0.18066 0.08769,0.35 0.24268,0.44295c0.155,0.09295 0.34808,0.09502 0.50505,0.00543c7.59934,-4.17527 15.52158,-6.20898 24.25977,-6.20898c5.02466,0 9.77548,0.69819 14.35742,2.06445c0.17131,0.05096 0.3568,0.00665 0.48659,-0.11624c0.12978,-0.12289 0.18414,-0.30569 0.14259,-0.47953c-0.04155,-0.17384 -0.17269,-0.3123 -0.34402,-0.36322c-4.67406,-1.39373 -9.52524,-2.10547 -14.64258,-2.10547zM66.4668,30.72266c-0.24073,0.01199 -0.43865,0.194 -0.47072,0.43289c-0.03207,0.23888 0.11082,0.46666 0.33986,0.54172c1.67284,0.5791 3.3236,1.23368 4.95117,2c0.16256,0.08341 0.35767,0.07152 0.50889,-0.03102c0.15123,-0.10253 0.23449,-0.27938 0.21718,-0.46126c-0.01731,-0.18189 -0.13244,-0.33985 -0.30029,-0.41202c-1.66443,-0.78368 -3.34767,-1.45211 -5.04883,-2.04102c-0.06312,-0.02291 -0.13021,-0.03288 -0.19727,-0.0293zM73.49219,33.75586c-0.23206,-0.00042 -0.43392,0.15888 -0.48746,0.38468c-0.05354,0.2258 0.0553,0.45877 0.26285,0.56259c0.34733,0.18149 0.68134,0.33494 0.99219,0.50586c0.15696,0.08959 0.35005,0.08751 0.50505,-0.00543c0.155,-0.09295 0.24778,-0.26229 0.24268,-0.44295c-0.00509,-0.18066 -0.10727,-0.34451 -0.26726,-0.42857c-0.35116,-0.19308 -0.68915,-0.34911 -1.00781,-0.51562c-0.07373,-0.04001 -0.15634,-0.06084 -0.24023,-0.06055zM37.5,46c-4.71861,0 -8.5,4.07506 -8.5,9c0,4.92494 3.78139,9 8.5,9c4.71861,0 8.5,-4.07506 8.5,-9c0,-4.92494 -3.78139,-9 -8.5,-9zM62.5,46c-4.71861,0 -8.5,4.07506 -8.5,9c0,4.92494 3.78139,9 8.5,9c4.71861,0 8.5,-4.07506 8.5,-9c0,-4.92494 -3.78139,-9 -8.5,-9zM37.5,48c3.56567,0 6.5,3.08838 6.5,7c0,3.91162 -2.93433,7 -6.5,7c-3.56567,0 -6.5,-3.08838 -6.5,-7c0,-3.91162 2.93433,-7 6.5,-7zM62.5,48c3.56567,0 6.5,3.08838 6.5,7c0,3.91162 -2.93433,7 -6.5,7c-3.56567,0 -6.5,-3.08838 -6.5,-7c0,-3.91162 2.93433,-7 6.5,-7z"></path></g></g></svg>